<?xml version="1.0" encoding="utf-8"?>
<!-- Generator: Adobe Illustrator 16.0.0, SVG Export Plug-In . SVG Version: 6.00 Build 0)  -->
<!DOCTYPE svg PUBLIC "-//W3C//DTD SVG 1.1//EN" "http://www.w3.org/Graphics/SVG/1.1/DTD/svg11.dtd">
<svg version="1.1" id="Layer_1" xmlns="http://www.w3.org/2000/svg" xmlns:xlink="http://www.w3.org/1999/xlink" x="0px" y="0px"
	 width="1400px" height="1400px" viewBox="0 0 1400 1400" enable-background="new 0 0 1400 1400" xml:space="preserve">
<g>
	<rect y="0" fill="#FFFFFF" width="1400" height="1400"/>
	<g>
		<path fill="#BFE5E6" d="M1282.3,1263.2c0,24.6-20,44.6-44.6,44.6H162.3c-24.6,0-44.6-20-44.6-44.6V187.7c0-24.6,20-44.6,44.6-44.6
			h1075.5c24.6,0,44.6,20,44.6,44.6V1263.2z"/>
		<g>
			<path fill="#437998" d="M498.3,665.1c0-5.9-4.8-10.7-10.7-10.7l-310.3-0.6c-5.9,0-10.7,4.7-10.7,10.7l-0.1,34.9l331.6,0.6
				L498.3,665.1z"/>
			<path fill="#437998" d="M498,838.3l0.2-95l-331.7-0.6l-0.2,95.1c0,5.9,4.8,10.7,10.7,10.7l310.3,0.6
				C493.2,849,498,844.2,498,838.3z"/>
			<polygon fill="#6C6E70" points="498.2,700 166.6,699.4 166.5,742.6 498.2,743.3 			"/>
		</g>
		<polygon fill="#FFFFFF" points="314.1,783.8 314.1,762.1 447.5,762.4 447.4,784 		"/>
		<g>
			<g>
				<polygon fill="#FFFFFF" points="1157.9,216.6 948.8,216.6 948.8,598.4 1222.9,598.4 1222.9,281.6 				"/>
				<polygon fill="#F1F2F2" points="1159.7,281.6 1224.6,281.6 1159.7,216.6 				"/>
			</g>
			<rect x="1009.3" y="367.9" fill="#D6D6D6" width="184.6" height="15.2"/>
			<rect x="1009.3" y="407.5" fill="#D6D6D6" width="184.6" height="15.2"/>
			<rect x="1009.3" y="447.1" fill="#D6D6D6" width="184.6" height="15.2"/>
			<rect x="1009.3" y="486.8" fill="#D6D6D6" width="184.6" height="15.2"/>
			<rect x="1009.3" y="526.4" fill="#D6D6D6" width="116.8" height="15.2"/>
			<rect x="1024.8" y="300.7" fill="#FFE3A1" width="142.7" height="44.3"/>
		</g>
		<g>
			<rect x="599.4" y="747.3" fill="#FFFFFF" width="626.6" height="502.9"/>
			<g>
				<path fill="#FF7A7A" d="M599.4,645.8v101.5H1226V645.8H599.4z M639.7,709.4c-10.6,0-19.2-8.6-19.2-19.2s8.6-19.2,19.2-19.2
					c10.6,0,19.2,8.6,19.2,19.2S650.3,709.4,639.7,709.4z M700.3,709.4c-10.6,0-19.2-8.6-19.2-19.2s8.6-19.2,19.2-19.2
					c10.6,0,19.2,8.6,19.2,19.2S710.9,709.4,700.3,709.4z M760.9,709.4c-10.6,0-19.2-8.6-19.2-19.2s8.6-19.2,19.2-19.2
					c10.6,0,19.2,8.6,19.2,19.2S771.4,709.4,760.9,709.4z M821.4,709.4c-10.6,0-19.2-8.6-19.2-19.2s8.6-19.2,19.2-19.2
					c10.6,0,19.2,8.6,19.2,19.2S832,709.4,821.4,709.4z M882,709.4c-10.6,0-19.2-8.6-19.2-19.2S871.4,671,882,671
					c10.6,0,19.2,8.6,19.2,19.2S892.6,709.4,882,709.4z M942.6,709.4c-10.6,0-19.2-8.6-19.2-19.2S932,671,942.6,671
					s19.2,8.6,19.2,19.2S953.1,709.4,942.6,709.4z M1003.1,709.4c-10.6,0-19.2-8.6-19.2-19.2s8.6-19.2,19.2-19.2s19.2,8.6,19.2,19.2
					S1013.7,709.4,1003.1,709.4z M1063.7,709.4c-10.6,0-19.2-8.6-19.2-19.2s8.6-19.2,19.2-19.2s19.2,8.6,19.2,19.2
					S1074.3,709.4,1063.7,709.4z M1124.3,709.4c-10.6,0-19.2-8.6-19.2-19.2s8.6-19.2,19.2-19.2c10.6,0,19.2,8.6,19.2,19.2
					S1134.8,709.4,1124.3,709.4z M1184.8,709.4c-10.6,0-19.2-8.6-19.2-19.2s8.6-19.2,19.2-19.2c10.6,0,19.2,8.6,19.2,19.2
					S1195.4,709.4,1184.8,709.4z"/>
			</g>
			<path fill="#A7A9AC" d="M1100.6,796.2h-3.7h-89.5h-3.7h-89.5h-3.7h-89.5h-3.7h-89.5h-3.7h-86V865v3.7v62.2v3.7v62.2v3.7v62.2v3.7
				v62.2v3.7v68.7h86h3.7h89.5h3.7h89.5h3.7h89.5h3.7h89.5h3.7h86v-68.7v-3.7v-62.2v-3.7v-62.2v-3.7v-62.2v-3.7v-62.2V865v-68.7
				H1100.6z M723.9,1197.5h-82.3v-65h82.3V1197.5z M723.9,1128.7h-82.3v-62.2h82.3V1128.7z M723.9,1062.8h-82.3v-62.2h82.3V1062.8z
				 M723.9,996.9h-82.3v-62.2h82.3V996.9z M723.9,930.9h-82.3v-62.2h82.3V930.9z M723.9,865h-82.3v-65h82.3V865z M817.2,1197.5
				h-89.5v-65h89.5V1197.5z M817.2,1128.7h-89.5v-62.2h89.5V1128.7z M817.2,1062.8h-89.5v-62.2h89.5V1062.8z M817.2,996.9h-89.5
				v-62.2h89.5V996.9z M817.2,930.9h-89.5v-62.2h89.5V930.9z M817.2,865h-89.5v-65h89.5V865z M910.4,1197.5h-89.5v-65h89.5V1197.5z
				 M910.4,1128.7h-89.5v-62.2h89.5V1128.7z M910.4,1062.8h-89.5v-62.2h89.5V1062.8z M910.4,996.9h-89.5v-62.2h89.5V996.9z
				 M910.4,930.9h-89.5v-62.2h89.5V930.9z M910.4,865h-89.5v-65h89.5V865z M1003.7,1197.5h-89.5v-65h89.5V1197.5z M1003.7,1128.7
				h-89.5v-62.2h89.5V1128.7z M1003.7,1062.8h-89.5v-62.2h89.5V1062.8z M1003.7,996.9h-89.5v-62.2h89.5V996.9z M1003.7,930.9h-89.5
				v-62.2h89.5V930.9z M1003.7,865h-89.5v-65h89.5V865z M1096.9,1197.5h-89.5v-65h89.5V1197.5z M1096.9,1128.7h-89.5v-62.2h89.5
				V1128.7z M1096.9,1062.8h-89.5v-62.2h89.5V1062.8z M1096.9,996.9h-89.5v-62.2h89.5V996.9z M1096.9,930.9h-89.5v-62.2h89.5V930.9z
				 M1096.9,865h-89.5v-65h89.5V865z M1183,1197.5h-82.3v-65h82.3V1197.5z M1183,1128.7h-82.3v-62.2h82.3V1128.7z M1183,1062.8
				h-82.3v-62.2h82.3V1062.8z M1183,996.9h-82.3v-62.2h82.3V996.9z M1183,930.9h-82.3v-62.2h82.3V930.9z M1183,865h-82.3v-65h82.3
				V865z"/>
			<rect x="689.8" y="813.5" fill="#A7A9AC" width="25.3" height="9.3"/>
			<rect x="782.7" y="813.5" fill="#A7A9AC" width="25.3" height="9.3"/>
			<rect x="875.6" y="813.5" fill="#A7A9AC" width="25.3" height="9.3"/>
			<rect x="968.5" y="813.5" fill="#A7A9AC" width="25.3" height="9.3"/>
			<rect x="1061.4" y="813.5" fill="#A7A9AC" width="25.3" height="9.3"/>
			<rect x="1148.4" y="813.5" fill="#A7A9AC" width="25.3" height="9.3"/>
			<g>
				<rect x="689.8" y="881.3" fill="#A7A9AC" width="25.3" height="9.3"/>
				<rect x="782.7" y="881.3" fill="#A7A9AC" width="25.3" height="9.3"/>
				<rect x="875.6" y="881.3" fill="#A7A9AC" width="25.3" height="9.3"/>
				<rect x="968.5" y="881.3" fill="#A7A9AC" width="25.3" height="9.3"/>
				<rect x="1061.4" y="881.3" fill="#A7A9AC" width="25.3" height="9.3"/>
				<rect x="1148.4" y="881.3" fill="#A7A9AC" width="25.3" height="9.3"/>
			</g>
			<g>
				<rect x="689.8" y="948.8" fill="#A7A9AC" width="25.3" height="9.3"/>
				<rect x="782.7" y="948.8" fill="#A7A9AC" width="25.3" height="9.3"/>
				<rect x="875.6" y="948.8" fill="#A7A9AC" width="25.3" height="9.3"/>
				<rect x="968.5" y="948.8" fill="#A7A9AC" width="25.3" height="9.3"/>
				<rect x="1061.4" y="948.8" fill="#A7A9AC" width="25.3" height="9.3"/>
				<rect x="1148.4" y="948.8" fill="#A7A9AC" width="25.3" height="9.3"/>
			</g>
			<g>
				<rect x="689.8" y="1014.2" fill="#A7A9AC" width="25.3" height="9.3"/>
				<rect x="782.7" y="1014.2" fill="#A7A9AC" width="25.3" height="9.3"/>
				<rect x="875.6" y="1014.2" fill="#A7A9AC" width="25.3" height="9.3"/>
				<rect x="968.5" y="1014.2" fill="#A7A9AC" width="25.3" height="9.3"/>
				<rect x="1061.4" y="1014.2" fill="#A7A9AC" width="25.3" height="9.3"/>
				<rect x="1148.4" y="1014.2" fill="#A7A9AC" width="25.3" height="9.3"/>
			</g>
			<g>
				<rect x="689.8" y="1081.7" fill="#A7A9AC" width="25.3" height="9.3"/>
				<rect x="782.7" y="1081.7" fill="#A7A9AC" width="25.3" height="9.3"/>
				<rect x="875.6" y="1081.7" fill="#A7A9AC" width="25.3" height="9.3"/>
				<rect x="968.5" y="1081.7" fill="#A7A9AC" width="25.3" height="9.3"/>
				<rect x="1061.4" y="1081.7" fill="#A7A9AC" width="25.3" height="9.3"/>
				<rect x="1148.4" y="1081.7" fill="#A7A9AC" width="25.3" height="9.3"/>
			</g>
			<g>
				<rect x="689.8" y="1148.5" fill="#A7A9AC" width="25.3" height="9.3"/>
				<rect x="782.7" y="1148.5" fill="#A7A9AC" width="25.3" height="9.3"/>
				<rect x="875.6" y="1148.5" fill="#A7A9AC" width="25.3" height="9.3"/>
				<rect x="968.5" y="1148.5" fill="#A7A9AC" width="25.3" height="9.3"/>
				<rect x="1061.4" y="1148.5" fill="#A7A9AC" width="25.3" height="9.3"/>
				<rect x="1148.4" y="1148.5" fill="#A7A9AC" width="25.3" height="9.3"/>
			</g>
			<g>
				<path fill="#808285" d="M1184.8,620.2c-5.8,0-10.4,4.7-10.4,10.4v55.7c0,5.8,4.7,10.4,10.4,10.4c0.6,0,1.3-0.1,1.9-0.2v-76.3
					C1186.1,620.3,1185.5,620.2,1184.8,620.2z"/>
				<path fill="#717375" d="M1186.7,620.4v76.3c4.9-0.9,8.6-5.1,8.6-10.3v-55.7C1195.3,625.5,1191.6,621.3,1186.7,620.4z"/>
			</g>
			<g>
				<path fill="#808285" d="M1124.3,620.2c-5.8,0-10.4,4.7-10.4,10.4v55.7c0,5.8,4.7,10.4,10.4,10.4c0.6,0,1.3-0.1,1.9-0.2v-76.3
					C1125.5,620.3,1124.9,620.2,1124.3,620.2z"/>
				<path fill="#717375" d="M1126.1,620.4v76.3c4.9-0.9,8.6-5.1,8.6-10.3v-55.7C1134.7,625.5,1131,621.3,1126.1,620.4z"/>
			</g>
			<g>
				<path fill="#808285" d="M1063.7,620.2c-5.8,0-10.4,4.7-10.4,10.4v55.7c0,5.8,4.7,10.4,10.4,10.4c0.6,0,1.3-0.1,1.9-0.2v-76.3
					C1064.9,620.3,1064.3,620.2,1063.7,620.2z"/>
				<path fill="#717375" d="M1065.6,620.4v76.3c4.9-0.9,8.6-5.1,8.6-10.3v-55.7C1074.1,625.5,1070.4,621.3,1065.6,620.4z"/>
			</g>
			<g>
				<path fill="#808285" d="M1003.1,620.2c-5.8,0-10.4,4.7-10.4,10.4v55.7c0,5.8,4.7,10.4,10.4,10.4c0.6,0,1.3-0.1,1.9-0.2v-76.3
					C1004.4,620.3,1003.8,620.2,1003.1,620.2z"/>
				<path fill="#717375" d="M1005,620.4v76.3c4.9-0.9,8.6-5.1,8.6-10.3v-55.7C1013.6,625.5,1009.9,621.3,1005,620.4z"/>
			</g>
			<g>
				<path fill="#808285" d="M942.6,620.2c-5.8,0-10.4,4.7-10.4,10.4v55.7c0,5.8,4.7,10.4,10.4,10.4c0.6,0,1.3-0.1,1.9-0.2v-76.3
					C943.8,620.3,943.2,620.2,942.6,620.2z"/>
				<path fill="#717375" d="M944.4,620.4v76.3c4.9-0.9,8.6-5.1,8.6-10.3v-55.7C953,625.5,949.3,621.3,944.4,620.4z"/>
			</g>
			<g>
				<path fill="#808285" d="M882,620.2c-5.8,0-10.4,4.7-10.4,10.4v55.7c0,5.8,4.7,10.4,10.4,10.4c0.6,0,1.3-0.1,1.9-0.2v-76.3
					C883.2,620.3,882.6,620.2,882,620.2z"/>
				<path fill="#717375" d="M883.8,620.4v76.3c4.9-0.9,8.6-5.1,8.6-10.3v-55.7C892.4,625.5,888.7,621.3,883.8,620.4z"/>
			</g>
			<g>
				<path fill="#808285" d="M821.4,620.2c-5.8,0-10.4,4.7-10.4,10.4v55.7c0,5.8,4.7,10.4,10.4,10.4c0.6,0,1.3-0.1,1.9-0.2v-76.3
					C822.7,620.3,822.1,620.2,821.4,620.2z"/>
				<path fill="#717375" d="M823.3,620.4v76.3c4.9-0.9,8.6-5.1,8.6-10.3v-55.7C831.9,625.5,828.2,621.3,823.3,620.4z"/>
			</g>
			<g>
				<path fill="#808285" d="M760.9,620.2c-5.8,0-10.4,4.7-10.4,10.4v55.7c0,5.8,4.7,10.4,10.4,10.4c0.6,0,1.3-0.1,1.9-0.2v-76.3
					C762.1,620.3,761.5,620.2,760.9,620.2z"/>
				<path fill="#717375" d="M762.7,620.4v76.3c4.9-0.9,8.6-5.1,8.6-10.3v-55.7C771.3,625.5,767.6,621.3,762.7,620.4z"/>
			</g>
			<g>
				<path fill="#808285" d="M700.3,620.2c-5.8,0-10.4,4.7-10.4,10.4v55.7c0,5.8,4.7,10.4,10.4,10.4c0.6,0,1.3-0.1,1.9-0.2v-76.3
					C701.5,620.3,700.9,620.2,700.3,620.2z"/>
				<path fill="#717375" d="M702.1,620.4v76.3c4.9-0.9,8.6-5.1,8.6-10.3v-55.7C710.7,625.5,707,621.3,702.1,620.4z"/>
			</g>
			<g>
				<path fill="#808285" d="M639.7,620.2c-5.8,0-10.4,4.7-10.4,10.4v55.7c0,5.8,4.7,10.4,10.4,10.4c0.6,0,1.3-0.1,1.9-0.2v-76.3
					C641,620.3,640.4,620.2,639.7,620.2z"/>
				<path fill="#717375" d="M641.6,620.4v76.3c4.9-0.9,8.6-5.1,8.6-10.3v-55.7C650.2,625.5,646.5,621.3,641.6,620.4z"/>
			</g>
			<rect x="599.4" y="747.3" fill="#E6E7E8" width="626.6" height="15.8"/>
		</g>
		<path fill="#00896F" d="M1067.8,1051.5c0,24.6-20,44.6-44.6,44.6H376.8c-24.6,0-44.6-20-44.6-44.6v-956c0-24.6,20-44.6,44.6-44.6
			h646.4c24.6,0,44.6,20,44.6,44.6V1051.5z"/>
		<rect x="399.5" y="190.8" fill="#00755E" width="630.8" height="858.8"/>
		<polygon fill="#EBEBEB" points="1026.4,1024.6 395.8,1040.9 373.6,182.4 1004.2,166 		"/>
		<polygon fill="#CCCCCC" points="1005.8,1039.8 375.2,1025.8 394.2,167.2 1024.8,181.2 		"/>
		<g>
			<rect x="384.6" y="174.1" fill="#FF7A7A" width="630.8" height="141.8"/>
			<rect x="384.6" y="315.9" fill="#FFFFFF" width="630.8" height="717"/>
		</g>
		<g>
			<text transform="matrix(1 0 0 1 440.8691 286.1211)"><tspan x="0" y="0" fill="#FFFFFF" font-family="'Oswald'" font-size="86.521">CREDIT REPO</tspan><tspan x="430" y="0" fill="#FFFFFF" font-family="'Oswald'" font-size="86.521" letter-spacing="-1">R</tspan><tspan x="475.4" y="0" fill="#FFFFFF" font-family="'Oswald'" font-size="86.521">T</tspan></text>
		</g>
		<g>
			<path fill="#989A9C" d="M910.8,231.3H489.2c-26.6,0-48.3-21.7-48.3-48.3v-1.9c0-26.6,21.7-48.3,48.3-48.3h421.7
				c26.6,0,48.3,21.7,48.3,48.3v1.9C959.1,209.7,937.5,231.3,910.8,231.3z M489.2,140.3c-22.5,0-40.9,18.3-40.9,40.9v1.9
				c0,22.5,18.3,40.9,40.9,40.9h421.7c22.5,0,40.9-18.3,40.9-40.9v-1.9c0-22.5-18.3-40.9-40.9-40.9H489.2z"/>
		</g>
		<g>
			<path fill="#BCBEC0" d="M912.7,118c0-24.6-20-44.6-44.6-44.6H531.9c-24.6,0-44.6,20-44.6,44.6v18.6h425.4V118z"/>
			<path fill="#ACAEB0" d="M487.3,136.6v18.6c0,24.6,20,44.6,44.6,44.6h336.2c24.6,0,44.6-20,44.6-44.6v-18.6H487.3z"/>
		</g>
		<rect x="411.5" y="541.3" fill="#F0F0F0" width="577.1" height="309.6"/>
		<rect x="411.5" y="349.3" fill="#D6D6D6" width="288.5" height="18.6"/>
		<rect x="411.5" y="388.9" fill="#D6D6D6" width="481.7" height="18.6"/>
		<rect x="411.5" y="876.9" fill="#D6D6D6" width="481.7" height="18.6"/>
		<rect x="411.5" y="914" fill="#D6D6D6" width="577.1" height="18.6"/>
		<rect x="411.5" y="437.2" fill="#7AFFBB" width="121.9" height="61.9"/>
		<rect x="563.2" y="437.2" fill="#FFE3A1" width="121.9" height="61.9"/>
		<rect x="714.9" y="437.2" fill="#C2F7FF" width="121.9" height="61.9"/>
		<rect x="866.7" y="437.2" fill="#FF7A7A" width="121.9" height="61.9"/>
		<rect x="434.2" y="562" fill="#D6D6D6" width="157.2" height="27.9"/>
		<rect x="621.4" y="562" fill="#D6D6D6" width="157.2" height="27.9"/>
		<rect x="808.6" y="562" fill="#D6D6D6" width="157.2" height="27.9"/>
		<g>
			<polygon fill="#00A270" points="519.7,860 287.3,1102.4 174.1,993.8 406.5,751.4 			"/>
			<g>
				<path fill="#009466" d="M308.3,889.9c-20.4,21.3-19.7,55.1,1.6,75.5c21.3,20.4,55.1,19.7,75.5-1.6c20.4-21.3,19.7-55.1-1.6-75.5
					C362.6,867.9,328.8,868.6,308.3,889.9z M374.3,953.2c-14.5,15.1-38.6,15.6-53.7,1.1c-15.2-14.5-15.7-38.6-1.1-53.7
					c14.5-15.2,38.6-15.7,53.8-1.1C388.3,914,388.8,938,374.3,953.2z"/>
			</g>
			<path fill="#009466" d="M285.6,905.3l-75.6,78.8c5.1,4.9,5.2,12.9,0.4,18l67.1,64.3c4.9-5.1,12.9-5.2,18-0.4l75.6-78.8
				c-23,9.2-50.2,4.8-69.2-13.4C282.9,955.6,277.4,928.6,285.6,905.3z"/>
			<path fill="#009466" d="M483.3,851.8l-67.1-64.3c-4.9,5.1-12.9,5.2-18,0.4l-75.6,78.8c23-9.2,50.1-4.8,69.2,13.4
				c19,18.2,24.5,45.2,16.3,68.5l75.6-78.8C478.6,864.9,478.4,856.8,483.3,851.8z"/>
			<path fill="#00A270" d="M291.8,984.3c10.8,10.4,11.2,27.5,0.8,38.3c-10.4,10.8-27.5,11.2-38.3,0.8c-10.8-10.4-11.2-27.5-0.8-38.3
				C263.9,974.3,281,974,291.8,984.3z"/>
			<path fill="#00A270" d="M439.5,830.3c10.8,10.4,11.2,27.5,0.8,38.3c-10.4,10.8-27.5,11.2-38.3,0.8c-10.8-10.4-11.2-27.5-0.8-38.3
				C411.5,820.3,428.7,820,439.5,830.3z"/>
		</g>
		<g>
			
				<rect x="203.2" y="940.4" transform="matrix(0.6921 -0.7218 0.7218 0.6921 -621.0989 581.4766)" fill="#00A270" width="335.8" height="156.9"/>
			<g>
				<path fill="#009466" d="M332.5,981.8c-20.4,21.3-19.7,55.1,1.6,75.5c21.3,20.4,55.1,19.7,75.5-1.6c20.4-21.3,19.7-55.1-1.6-75.5
					C386.8,959.8,352.9,960.5,332.5,981.8z M398.5,1045.1c-14.5,15.1-38.6,15.6-53.7,1.1c-15.2-14.5-15.7-38.6-1.1-53.7
					c14.5-15.2,38.6-15.7,53.8-1.1C412.5,1005.9,413,1030,398.5,1045.1z"/>
			</g>
			<path fill="#009466" d="M309.8,997.2l-75.6,78.8c5.1,4.9,5.2,12.9,0.4,18l67.1,64.3c4.9-5.1,12.9-5.2,18-0.4l75.6-78.8
				c-23,9.2-50.2,4.8-69.2-13.4C307.1,1047.5,301.6,1020.5,309.8,997.2z"/>
			<path fill="#009466" d="M507.5,943.7l-67.1-64.3c-4.9,5.1-12.9,5.2-18,0.4l-75.6,78.8c23-9.2,50.1-4.8,69.2,13.4
				c19,18.2,24.5,45.2,16.3,68.5l75.6-78.8C502.8,956.8,502.6,948.7,507.5,943.7z"/>
			<path fill="#00A270" d="M316,1076.2c10.8,10.4,11.2,27.5,0.8,38.3c-10.4,10.8-27.5,11.2-38.3,0.8c-10.8-10.4-11.2-27.5-0.8-38.3
				C288,1066.2,305.2,1065.9,316,1076.2z"/>
			<path fill="#00A270" d="M463.7,922.3c10.8,10.4,11.2,27.5,0.8,38.3c-10.4,10.8-27.5,11.2-38.3,0.8c-10.8-10.4-11.2-27.5-0.8-38.3
				C435.7,912.3,452.9,911.9,463.7,922.3z"/>
		</g>
		<g>
			<g>
				<path fill="#FFFFFF" d="M549.2,1211.9c0,21-17.2,38.2-38.2,38.2H202.5c-21,0-38.2-17.2-38.2-38.2v-201.3
					c0-21,17.2-38.2,38.2-38.2h308.4c21,0,38.2,17.2,38.2,38.2V1211.9z"/>
				<path fill="#937252" d="M549.2,1211.9c0,21-17.2,38.2-38.2,38.2H202.5c-21,0-38.2-17.2-38.2-38.2v-201.3
					c0-21,17.2-38.2,38.2-38.2h308.4c21,0,38.2,17.2,38.2,38.2V1211.9z"/>
			</g>
			<path fill="#85674A" d="M505.2,1175.4c-35.3,0-64.1-28.8-64.1-64.1s28.8-64.1,64.1-64.1h44.2v128.2H505.2z"/>
			<path fill="#A37F5B" d="M570.5,1054.6h-65.3c-31.3,0-56.7,25.4-56.7,56.7s25.4,56.7,56.7,56.7h65.3V1054.6z"/>
			<path fill="#8F6F50" d="M530.2,1115.2c0,15.8-12.8,28.7-28.7,28.7c-15.8,0-28.6-12.8-28.6-28.7c0-15.8,12.8-28.6,28.6-28.6
				C517.4,1086.6,530.2,1099.4,530.2,1115.2z"/>
			<path fill="#FFEDB5" d="M530.9,1111.3c0,14.9-12.1,26.9-27,26.9c-14.9,0-26.9-12.1-26.9-26.9s12.1-26.9,26.9-26.9
				C518.8,1084.3,530.9,1096.4,530.9,1111.3z"/>
			<rect x="164.3" y="1024.6" fill="#85674A" width="385.1" height="12.1"/>
			<rect x="164.3" y="1186.4" fill="#8F6F50" width="385.1" height="12.1"/>
			<g>
				<g>
					<rect x="164.3" y="1028.3" fill="#FFEDB5" width="16.7" height="3.7"/>
				</g>
				<g>
					<path fill="#FFEDB5" d="M517.7,1032h-33.3v-3.7h33.3V1032z M469.6,1032h-33.3v-3.7h33.3V1032z M421.5,1032h-33.3v-3.7h33.3
						V1032z M373.4,1032h-33.3v-3.7h33.3V1032z M325.3,1032H292v-3.7h33.3V1032z M277.2,1032h-33.3v-3.7h33.3V1032z M229.1,1032
						h-33.3v-3.7h33.3V1032z"/>
				</g>
				<g>
					<rect x="532.5" y="1028.3" fill="#FFEDB5" width="16.7" height="3.7"/>
				</g>
			</g>
			<g>
				<g>
					<rect x="164.3" y="1190.6" fill="#FFEDB5" width="16.7" height="3.7"/>
				</g>
				<g>
					<path fill="#FFEDB5" d="M517.7,1194.3h-33.3v-3.7h33.3V1194.3z M469.6,1194.3h-33.3v-3.7h33.3V1194.3z M421.5,1194.3h-33.3
						v-3.7h33.3V1194.3z M373.4,1194.3h-33.3v-3.7h33.3V1194.3z M325.3,1194.3H292v-3.7h33.3V1194.3z M277.2,1194.3h-33.3v-3.7h33.3
						V1194.3z M229.1,1194.3h-33.3v-3.7h33.3V1194.3z"/>
				</g>
				<g>
					<rect x="532.5" y="1190.6" fill="#FFEDB5" width="16.7" height="3.7"/>
				</g>
			</g>
		</g>
		<g>
			<circle fill="#FF7A7A" cx="305.7" cy="454.7" r="142.1"/>
			<g>
				<path fill="#FFFFFF" d="M271.3,420.3c-10.7,10.7-28.2,10.7-38.9,0c-10.8-10.8-10.8-28.2,0-38.9c10.7-10.7,28.1-10.7,38.9,0
					C282,392.1,282,409.6,271.3,420.3z"/>
				<path fill="#FFFFFF" d="M379,528c-10.7,10.7-28.1,10.7-38.9,0c-10.7-10.7-10.7-28.2,0-38.9c10.8-10.8,28.2-10.7,38.9,0
					C389.8,499.9,389.8,517.3,379,528z"/>
				<g>
					<polygon fill="#FFFFFF" points="237,541.7 218.8,523.4 374.4,367.8 392.6,386.1 					"/>
				</g>
			</g>
		</g>
		<path fill="#FF7A7A" d="M371.9,508.6c0,6.8-5.5,12.4-12.4,12.4c-6.8,0-12.4-5.5-12.4-12.4c0-6.8,5.5-12.4,12.4-12.4
			C366.4,496.2,371.9,501.8,371.9,508.6z"/>
		<path fill="#FF7A7A" d="M264.2,400.9c0,6.8-5.5,12.4-12.4,12.4c-6.8,0-12.4-5.5-12.4-12.4c0-6.8,5.5-12.4,12.4-12.4
			C258.7,388.5,264.2,394.1,264.2,400.9z"/>
	</g>
</g>
</svg>
