<?xml version="1.0" encoding="utf-8"?>
<svg id="master-artboard" viewBox="0 0 1400 1400" version="1.1" xmlns="http://www.w3.org/2000/svg" x="0px" y="0px" width="1400px" height="1400px" enable-background="new 0 0 1400 1400">
<path fill="#BFE5E6" d="M1282.3,1263.2c0,24.6-20,44.6-44.6,44.6H162.3c-24.6,0-44.6-20-44.6-44.6V187.7c0-24.6,20-44.6,44.6-44.6&#10;&#9;&#9;&#9;h1075.5c24.6,0,44.6,20,44.6,44.6V1263.2z" transform="matrix(1, 0, 0, 1, 0, 2.842170943040401e-14)"/><path fill="#437998" d="M498.3,665.1c0-5.9-4.8-10.7-10.7-10.7l-310.3-0.6c-5.9,0-10.7,4.7-10.7,10.7l-0.1,34.9l331.6,0.6&#10;&#9;&#9;&#9;&#9;L498.3,665.1z" transform="matrix(1, 0, 0, 1, 0, 4.263256414560601e-14)"/><path fill="#437998" d="M498,838.3l0.2-95l-331.7-0.6l-0.2,95.1c0,5.9,4.8,10.7,10.7,10.7l310.3,0.6&#10;&#9;&#9;&#9;&#9;C493.2,849,498,844.2,498,838.3z" transform="matrix(1, 0, 0, 1, 0, 4.263256414560601e-14)"/><path d="M 498.20001220703125 700 L 166.60000610351562 699.4000244140625 L 166.5 742.5999755859375 L 498.20001220703125 743.2999877929688 Z" fill="#6C6E70" transform="matrix(1, 0, 0, 1, 0, 4.263256414560601e-14)"/><path d="M 314.1000061035156 783.7999877929688 L 314.1000061035156 762.0999755859375 L 447.5 762.4000244140625 L 447.3999938964844 784 Z" fill="#FFFFFF" transform="matrix(1, 0, 0, 1, 0, 2.842170943040401e-14)"/><g transform="matrix(1, 0, 0, 1, 0, 4.263256414560601e-14)">
				<path d="M 1157.9000244140625 216.60000610351562 L 948.7999877929688 216.60000610351562 L 948.7999877929688 598.4000244140625 L 1222.9000244140625 598.4000244140625 L 1222.9000244140625 281.6000061035156 Z" fill="#FFFFFF"/>
				<path d="M 1159.699951171875 281.6000061035156 L 1224.5999755859375 281.6000061035156 L 1159.699951171875 216.60000610351562 Z" fill="#F1F2F2"/>
			</g><path d="M 1009.299988 367.899994 H 1193.899994 V 383.099994 H 1009.299988 V 367.899994 Z" fill="#D6D6D6" transform="matrix(1, 0, 0, 1, 0, 4.263256414560601e-14)"/><path d="M 1009.299988 407.5 H 1193.899994 V 422.7 H 1009.299988 V 407.5 Z" fill="#D6D6D6" transform="matrix(1, 0, 0, 1, 0, 4.263256414560601e-14)"/><path d="M 1009.299988 447.100006 H 1193.899994 V 462.300006 H 1009.299988 V 447.100006 Z" fill="#D6D6D6" transform="matrix(1, 0, 0, 1, 0, 4.263256414560601e-14)"/><path d="M 1009.299988 486.799988 H 1193.899994 V 501.999988 H 1009.299988 V 486.799988 Z" fill="#D6D6D6" transform="matrix(1, 0, 0, 1, 0, 4.263256414560601e-14)"/><path d="M 1009.299988 526.400024 H 1126.099991 V 541.600024 H 1009.299988 V 526.400024 Z" fill="#D6D6D6" transform="matrix(1, 0, 0, 1, 0, 4.263256414560601e-14)"/><path d="M 1024.800049 300.700012 H 1167.500046 V 345.000011 H 1024.800049 V 300.700012 Z" fill="#FFE3A1" transform="matrix(1, 0, 0, 1, 0, 4.263256414560601e-14)"/><path d="M 599.400024 747.299988 H 1226 V 1250.199982 H 599.400024 V 747.299988 Z" fill="#FFFFFF" transform="matrix(1, 0, 0, 1, 0, 4.263256414560601e-14)"/><path fill="#FF7A7A" d="M599.4,645.8v101.5H1226V645.8H599.4z M639.7,709.4c-10.6,0-19.2-8.6-19.2-19.2s8.6-19.2,19.2-19.2&#10;&#9;&#9;&#9;&#9;&#9;c10.6,0,19.2,8.6,19.2,19.2S650.3,709.4,639.7,709.4z M700.3,709.4c-10.6,0-19.2-8.6-19.2-19.2s8.6-19.2,19.2-19.2&#10;&#9;&#9;&#9;&#9;&#9;c10.6,0,19.2,8.6,19.2,19.2S710.9,709.4,700.3,709.4z M760.9,709.4c-10.6,0-19.2-8.6-19.2-19.2s8.6-19.2,19.2-19.2&#10;&#9;&#9;&#9;&#9;&#9;c10.6,0,19.2,8.6,19.2,19.2S771.4,709.4,760.9,709.4z M821.4,709.4c-10.6,0-19.2-8.6-19.2-19.2s8.6-19.2,19.2-19.2&#10;&#9;&#9;&#9;&#9;&#9;c10.6,0,19.2,8.6,19.2,19.2S832,709.4,821.4,709.4z M882,709.4c-10.6,0-19.2-8.6-19.2-19.2S871.4,671,882,671&#10;&#9;&#9;&#9;&#9;&#9;c10.6,0,19.2,8.6,19.2,19.2S892.6,709.4,882,709.4z M942.6,709.4c-10.6,0-19.2-8.6-19.2-19.2S932,671,942.6,671&#10;&#9;&#9;&#9;&#9;&#9;s19.2,8.6,19.2,19.2S953.1,709.4,942.6,709.4z M1003.1,709.4c-10.6,0-19.2-8.6-19.2-19.2s8.6-19.2,19.2-19.2s19.2,8.6,19.2,19.2&#10;&#9;&#9;&#9;&#9;&#9;S1013.7,709.4,1003.1,709.4z M1063.7,709.4c-10.6,0-19.2-8.6-19.2-19.2s8.6-19.2,19.2-19.2s19.2,8.6,19.2,19.2&#10;&#9;&#9;&#9;&#9;&#9;S1074.3,709.4,1063.7,709.4z M1124.3,709.4c-10.6,0-19.2-8.6-19.2-19.2s8.6-19.2,19.2-19.2c10.6,0,19.2,8.6,19.2,19.2&#10;&#9;&#9;&#9;&#9;&#9;S1134.8,709.4,1124.3,709.4z M1184.8,709.4c-10.6,0-19.2-8.6-19.2-19.2s8.6-19.2,19.2-19.2c10.6,0,19.2,8.6,19.2,19.2&#10;&#9;&#9;&#9;&#9;&#9;S1195.4,709.4,1184.8,709.4z" transform="matrix(1, 0, 0, 1, 0, 4.263256414560601e-14)"/><path fill="#A7A9AC" d="M1100.6,796.2h-3.7h-89.5h-3.7h-89.5h-3.7h-89.5h-3.7h-89.5h-3.7h-86V865v3.7v62.2v3.7v62.2v3.7v62.2v3.7&#10;&#9;&#9;&#9;&#9;v62.2v3.7v68.7h86h3.7h89.5h3.7h89.5h3.7h89.5h3.7h89.5h3.7h86v-68.7v-3.7v-62.2v-3.7v-62.2v-3.7v-62.2v-3.7v-62.2V865v-68.7&#10;&#9;&#9;&#9;&#9;H1100.6z M723.9,1197.5h-82.3v-65h82.3V1197.5z M723.9,1128.7h-82.3v-62.2h82.3V1128.7z M723.9,1062.8h-82.3v-62.2h82.3V1062.8z&#10;&#9;&#9;&#9;&#9; M723.9,996.9h-82.3v-62.2h82.3V996.9z M723.9,930.9h-82.3v-62.2h82.3V930.9z M723.9,865h-82.3v-65h82.3V865z M817.2,1197.5&#10;&#9;&#9;&#9;&#9;h-89.5v-65h89.5V1197.5z M817.2,1128.7h-89.5v-62.2h89.5V1128.7z M817.2,1062.8h-89.5v-62.2h89.5V1062.8z M817.2,996.9h-89.5&#10;&#9;&#9;&#9;&#9;v-62.2h89.5V996.9z M817.2,930.9h-89.5v-62.2h89.5V930.9z M817.2,865h-89.5v-65h89.5V865z M910.4,1197.5h-89.5v-65h89.5V1197.5z&#10;&#9;&#9;&#9;&#9; M910.4,1128.7h-89.5v-62.2h89.5V1128.7z M910.4,1062.8h-89.5v-62.2h89.5V1062.8z M910.4,996.9h-89.5v-62.2h89.5V996.9z&#10;&#9;&#9;&#9;&#9; M910.4,930.9h-89.5v-62.2h89.5V930.9z M910.4,865h-89.5v-65h89.5V865z M1003.7,1197.5h-89.5v-65h89.5V1197.5z M1003.7,1128.7&#10;&#9;&#9;&#9;&#9;h-89.5v-62.2h89.5V1128.7z M1003.7,1062.8h-89.5v-62.2h89.5V1062.8z M1003.7,996.9h-89.5v-62.2h89.5V996.9z M1003.7,930.9h-89.5&#10;&#9;&#9;&#9;&#9;v-62.2h89.5V930.9z M1003.7,865h-89.5v-65h89.5V865z M1096.9,1197.5h-89.5v-65h89.5V1197.5z M1096.9,1128.7h-89.5v-62.2h89.5&#10;&#9;&#9;&#9;&#9;V1128.7z M1096.9,1062.8h-89.5v-62.2h89.5V1062.8z M1096.9,996.9h-89.5v-62.2h89.5V996.9z M1096.9,930.9h-89.5v-62.2h89.5V930.9z&#10;&#9;&#9;&#9;&#9; M1096.9,865h-89.5v-65h89.5V865z M1183,1197.5h-82.3v-65h82.3V1197.5z M1183,1128.7h-82.3v-62.2h82.3V1128.7z M1183,1062.8&#10;&#9;&#9;&#9;&#9;h-82.3v-62.2h82.3V1062.8z M1183,996.9h-82.3v-62.2h82.3V996.9z M1183,930.9h-82.3v-62.2h82.3V930.9z M1183,865h-82.3v-65h82.3&#10;&#9;&#9;&#9;&#9;V865z" transform="matrix(1, 0, 0, 1, 0, 4.263256414560601e-14)"/><path d="M 689.799988 813.5 H 715.099987 V 822.8 H 689.799988 V 813.5 Z" fill="#A7A9AC" transform="matrix(1, 0, 0, 1, 0, 4.263256414560601e-14)"/><path d="M 782.700012 813.5 H 808.000011 V 822.8 H 782.700012 V 813.5 Z" fill="#A7A9AC" transform="matrix(1, 0, 0, 1, 0, 4.263256414560601e-14)"/><path d="M 875.599976 813.5 H 900.899975 V 822.8 H 875.599976 V 813.5 Z" fill="#A7A9AC" transform="matrix(1, 0, 0, 1, 0, 4.263256414560601e-14)"/><path d="M 968.5 813.5 H 993.799999 V 822.8 H 968.5 V 813.5 Z" fill="#A7A9AC" transform="matrix(1, 0, 0, 1, 0, 4.263256414560601e-14)"/><path d="M 1061.400024 813.5 H 1086.700024 V 822.8 H 1061.400024 V 813.5 Z" fill="#A7A9AC" transform="matrix(1, 0, 0, 1, 0, 4.263256414560601e-14)"/><path d="M 1148.400024 813.5 H 1173.700024 V 822.8 H 1148.400024 V 813.5 Z" fill="#A7A9AC" transform="matrix(1, 0, 0, 1, 0, 4.263256414560601e-14)"/><path d="M 689.799988 881.299988 H 715.099987 V 890.599988 H 689.799988 V 881.299988 Z" fill="#A7A9AC" transform="matrix(1, 0, 0, 1, 0, 4.263256414560601e-14)"/><path d="M 782.700012 881.299988 H 808.000011 V 890.599988 H 782.700012 V 881.299988 Z" fill="#A7A9AC" transform="matrix(1, 0, 0, 1, 0, 4.263256414560601e-14)"/><path d="M 875.599976 881.299988 H 900.899975 V 890.599988 H 875.599976 V 881.299988 Z" fill="#A7A9AC" transform="matrix(1, 0, 0, 1, 0, 4.263256414560601e-14)"/><path d="M 968.5 881.299988 H 993.799999 V 890.599988 H 968.5 V 881.299988 Z" fill="#A7A9AC" transform="matrix(1, 0, 0, 1, 0, 4.263256414560601e-14)"/><path d="M 1061.400024 881.299988 H 1086.700024 V 890.599988 H 1061.400024 V 881.299988 Z" fill="#A7A9AC" transform="matrix(1, 0, 0, 1, 0, 4.263256414560601e-14)"/><path d="M 1148.400024 881.299988 H 1173.700024 V 890.599988 H 1148.400024 V 881.299988 Z" fill="#A7A9AC" transform="matrix(1, 0, 0, 1, 0, 4.263256414560601e-14)"/><path d="M 689.799988 948.799988 H 715.099987 V 958.099988 H 689.799988 V 948.799988 Z" fill="#A7A9AC" transform="matrix(1, 0, 0, 1, 0, 4.263256414560601e-14)"/><path d="M 782.700012 948.799988 H 808.000011 V 958.099988 H 782.700012 V 948.799988 Z" fill="#A7A9AC" transform="matrix(1, 0, 0, 1, 0, 4.263256414560601e-14)"/><path d="M 875.599976 948.799988 H 900.899975 V 958.099988 H 875.599976 V 948.799988 Z" fill="#A7A9AC" transform="matrix(1, 0, 0, 1, 0, 4.263256414560601e-14)"/><path d="M 968.5 948.799988 H 993.799999 V 958.099988 H 968.5 V 948.799988 Z" fill="#A7A9AC" transform="matrix(1, 0, 0, 1, 0, 4.263256414560601e-14)"/><path d="M 1061.400024 948.799988 H 1086.700024 V 958.099988 H 1061.400024 V 948.799988 Z" fill="#A7A9AC" transform="matrix(1, 0, 0, 1, 0, 4.263256414560601e-14)"/><path d="M 1148.400024 948.799988 H 1173.700024 V 958.099988 H 1148.400024 V 948.799988 Z" fill="#A7A9AC" transform="matrix(1, 0, 0, 1, 0, 4.263256414560601e-14)"/><path d="M 689.799988 1014.200012 H 715.099987 V 1023.500012 H 689.799988 V 1014.200012 Z" fill="#A7A9AC" transform="matrix(1, 0, 0, 1, 0, 4.263256414560601e-14)"/><path d="M 782.700012 1014.200012 H 808.000011 V 1023.500012 H 782.700012 V 1014.200012 Z" fill="#A7A9AC" transform="matrix(1, 0, 0, 1, 0, 4.263256414560601e-14)"/><path d="M 875.599976 1014.200012 H 900.899975 V 1023.500012 H 875.599976 V 1014.200012 Z" fill="#A7A9AC" transform="matrix(1, 0, 0, 1, 0, 4.263256414560601e-14)"/><path d="M 968.5 1014.200012 H 993.799999 V 1023.500012 H 968.5 V 1014.200012 Z" fill="#A7A9AC" transform="matrix(1, 0, 0, 1, 0, 4.263256414560601e-14)"/><path d="M 1061.400024 1014.200012 H 1086.700024 V 1023.500012 H 1061.400024 V 1014.200012 Z" fill="#A7A9AC" transform="matrix(1, 0, 0, 1, 0, 4.263256414560601e-14)"/><path d="M 1148.400024 1014.200012 H 1173.700024 V 1023.500012 H 1148.400024 V 1014.200012 Z" fill="#A7A9AC" transform="matrix(1, 0, 0, 1, 0, 4.263256414560601e-14)"/><path d="M 689.799988 1081.699951 H 715.099987 V 1090.999951 H 689.799988 V 1081.699951 Z" fill="#A7A9AC" transform="matrix(1, 0, 0, 1, 0, 4.263256414560601e-14)"/><path d="M 782.700012 1081.699951 H 808.000011 V 1090.999951 H 782.700012 V 1081.699951 Z" fill="#A7A9AC" transform="matrix(1, 0, 0, 1, 0, 4.263256414560601e-14)"/><path d="M 875.599976 1081.699951 H 900.899975 V 1090.999951 H 875.599976 V 1081.699951 Z" fill="#A7A9AC" transform="matrix(1, 0, 0, 1, 0, 4.263256414560601e-14)"/><path d="M 968.5 1081.699951 H 993.799999 V 1090.999951 H 968.5 V 1081.699951 Z" fill="#A7A9AC" transform="matrix(1, 0, 0, 1, 0, 4.263256414560601e-14)"/><path d="M 1061.400024 1081.699951 H 1086.700024 V 1090.999951 H 1061.400024 V 1081.699951 Z" fill="#A7A9AC" transform="matrix(1, 0, 0, 1, 0, 4.263256414560601e-14)"/><path d="M 1148.400024 1081.699951 H 1173.700024 V 1090.999951 H 1148.400024 V 1081.699951 Z" fill="#A7A9AC" transform="matrix(1, 0, 0, 1, 0, 4.263256414560601e-14)"/><path d="M 689.799988 1148.5 H 715.099987 V 1157.8 H 689.799988 V 1148.5 Z" fill="#A7A9AC" transform="matrix(1, 0, 0, 1, 0, 4.263256414560601e-14)"/><path d="M 782.700012 1148.5 H 808.000011 V 1157.8 H 782.700012 V 1148.5 Z" fill="#A7A9AC" transform="matrix(1, 0, 0, 1, 0, 4.263256414560601e-14)"/><path d="M 875.599976 1148.5 H 900.899975 V 1157.8 H 875.599976 V 1148.5 Z" fill="#A7A9AC" transform="matrix(1, 0, 0, 1, 0, 4.263256414560601e-14)"/><path d="M 968.5 1148.5 H 993.799999 V 1157.8 H 968.5 V 1148.5 Z" fill="#A7A9AC" transform="matrix(1, 0, 0, 1, 0, 4.263256414560601e-14)"/><path d="M 1061.400024 1148.5 H 1086.700024 V 1157.8 H 1061.400024 V 1148.5 Z" fill="#A7A9AC" transform="matrix(1, 0, 0, 1, 0, 4.263256414560601e-14)"/><path d="M 1148.400024 1148.5 H 1173.700024 V 1157.8 H 1148.400024 V 1148.5 Z" fill="#A7A9AC" transform="matrix(1, 0, 0, 1, 0, 4.263256414560601e-14)"/><path fill="#808285" d="M1184.8,620.2c-5.8,0-10.4,4.7-10.4,10.4v55.7c0,5.8,4.7,10.4,10.4,10.4c0.6,0,1.3-0.1,1.9-0.2v-76.3&#10;&#9;&#9;&#9;&#9;&#9;C1186.1,620.3,1185.5,620.2,1184.8,620.2z" transform="matrix(1, 0, 0, 1, 0, 4.263256414560601e-14)"/><path fill="#717375" d="M1186.7,620.4v76.3c4.9-0.9,8.6-5.1,8.6-10.3v-55.7C1195.3,625.5,1191.6,621.3,1186.7,620.4z" transform="matrix(1, 0, 0, 1, 0, 4.263256414560601e-14)"/><path fill="#808285" d="M1124.3,620.2c-5.8,0-10.4,4.7-10.4,10.4v55.7c0,5.8,4.7,10.4,10.4,10.4c0.6,0,1.3-0.1,1.9-0.2v-76.3&#10;&#9;&#9;&#9;&#9;&#9;C1125.5,620.3,1124.9,620.2,1124.3,620.2z" transform="matrix(1, 0, 0, 1, 0, 4.263256414560601e-14)"/><path fill="#717375" d="M1126.1,620.4v76.3c4.9-0.9,8.6-5.1,8.6-10.3v-55.7C1134.7,625.5,1131,621.3,1126.1,620.4z" transform="matrix(1, 0, 0, 1, 0, 4.263256414560601e-14)"/><path fill="#808285" d="M1063.7,620.2c-5.8,0-10.4,4.7-10.4,10.4v55.7c0,5.8,4.7,10.4,10.4,10.4c0.6,0,1.3-0.1,1.9-0.2v-76.3&#10;&#9;&#9;&#9;&#9;&#9;C1064.9,620.3,1064.3,620.2,1063.7,620.2z" transform="matrix(1, 0, 0, 1, 0, 4.263256414560601e-14)"/><path fill="#717375" d="M1065.6,620.4v76.3c4.9-0.9,8.6-5.1,8.6-10.3v-55.7C1074.1,625.5,1070.4,621.3,1065.6,620.4z" transform="matrix(1, 0, 0, 1, 0, 4.263256414560601e-14)"/><path fill="#808285" d="M1003.1,620.2c-5.8,0-10.4,4.7-10.4,10.4v55.7c0,5.8,4.7,10.4,10.4,10.4c0.6,0,1.3-0.1,1.9-0.2v-76.3&#10;&#9;&#9;&#9;&#9;&#9;C1004.4,620.3,1003.8,620.2,1003.1,620.2z" transform="matrix(1, 0, 0, 1, 0, 4.263256414560601e-14)"/><path fill="#717375" d="M1005,620.4v76.3c4.9-0.9,8.6-5.1,8.6-10.3v-55.7C1013.6,625.5,1009.9,621.3,1005,620.4z" transform="matrix(1, 0, 0, 1, 0, 4.263256414560601e-14)"/><path fill="#808285" d="M942.6,620.2c-5.8,0-10.4,4.7-10.4,10.4v55.7c0,5.8,4.7,10.4,10.4,10.4c0.6,0,1.3-0.1,1.9-0.2v-76.3&#10;&#9;&#9;&#9;&#9;&#9;C943.8,620.3,943.2,620.2,942.6,620.2z" transform="matrix(1, 0, 0, 1, 0, 4.263256414560601e-14)"/><path fill="#717375" d="M944.4,620.4v76.3c4.9-0.9,8.6-5.1,8.6-10.3v-55.7C953,625.5,949.3,621.3,944.4,620.4z" transform="matrix(1, 0, 0, 1, 0, 4.263256414560601e-14)"/><path fill="#808285" d="M882,620.2c-5.8,0-10.4,4.7-10.4,10.4v55.7c0,5.8,4.7,10.4,10.4,10.4c0.6,0,1.3-0.1,1.9-0.2v-76.3&#10;&#9;&#9;&#9;&#9;&#9;C883.2,620.3,882.6,620.2,882,620.2z" transform="matrix(1, 0, 0, 1, 0, 4.263256414560601e-14)"/><path fill="#717375" d="M883.8,620.4v76.3c4.9-0.9,8.6-5.1,8.6-10.3v-55.7C892.4,625.5,888.7,621.3,883.8,620.4z" transform="matrix(1, 0, 0, 1, 0, 4.263256414560601e-14)"/><path fill="#808285" d="M821.4,620.2c-5.8,0-10.4,4.7-10.4,10.4v55.7c0,5.8,4.7,10.4,10.4,10.4c0.6,0,1.3-0.1,1.9-0.2v-76.3&#10;&#9;&#9;&#9;&#9;&#9;C822.7,620.3,822.1,620.2,821.4,620.2z" transform="matrix(1, 0, 0, 1, 0, 4.263256414560601e-14)"/><path fill="#717375" d="M823.3,620.4v76.3c4.9-0.9,8.6-5.1,8.6-10.3v-55.7C831.9,625.5,828.2,621.3,823.3,620.4z" transform="matrix(1, 0, 0, 1, 0, 4.263256414560601e-14)"/><path fill="#808285" d="M760.9,620.2c-5.8,0-10.4,4.7-10.4,10.4v55.7c0,5.8,4.7,10.4,10.4,10.4c0.6,0,1.3-0.1,1.9-0.2v-76.3&#10;&#9;&#9;&#9;&#9;&#9;C762.1,620.3,761.5,620.2,760.9,620.2z" transform="matrix(1, 0, 0, 1, 0, 4.263256414560601e-14)"/><path fill="#717375" d="M762.7,620.4v76.3c4.9-0.9,8.6-5.1,8.6-10.3v-55.7C771.3,625.5,767.6,621.3,762.7,620.4z" transform="matrix(1, 0, 0, 1, 0, 4.263256414560601e-14)"/><path fill="#808285" d="M700.3,620.2c-5.8,0-10.4,4.7-10.4,10.4v55.7c0,5.8,4.7,10.4,10.4,10.4c0.6,0,1.3-0.1,1.9-0.2v-76.3&#10;&#9;&#9;&#9;&#9;&#9;C701.5,620.3,700.9,620.2,700.3,620.2z" transform="matrix(1, 0, 0, 1, 0, 4.263256414560601e-14)"/><path fill="#717375" d="M702.1,620.4v76.3c4.9-0.9,8.6-5.1,8.6-10.3v-55.7C710.7,625.5,707,621.3,702.1,620.4z" transform="matrix(1, 0, 0, 1, 0, 4.263256414560601e-14)"/><path fill="#808285" d="M639.7,620.2c-5.8,0-10.4,4.7-10.4,10.4v55.7c0,5.8,4.7,10.4,10.4,10.4c0.6,0,1.3-0.1,1.9-0.2v-76.3&#10;&#9;&#9;&#9;&#9;&#9;C641,620.3,640.4,620.2,639.7,620.2z" transform="matrix(1, 0, 0, 1, 0, 4.263256414560601e-14)"/><path fill="#717375" d="M641.6,620.4v76.3c4.9-0.9,8.6-5.1,8.6-10.3v-55.7C650.2,625.5,646.5,621.3,641.6,620.4z" transform="matrix(1, 0, 0, 1, 0, 4.263256414560601e-14)"/><path d="M 599.400024 747.299988 H 1226 V 763.099988 H 599.400024 V 747.299988 Z" fill="#E6E7E8" transform="matrix(1, 0, 0, 1, 0, 4.263256414560601e-14)"/><path fill="#00896F" d="M1067.8,1051.5c0,24.6-20,44.6-44.6,44.6H376.8c-24.6,0-44.6-20-44.6-44.6v-956c0-24.6,20-44.6,44.6-44.6&#10;&#9;&#9;&#9;h646.4c24.6,0,44.6,20,44.6,44.6V1051.5z" transform="matrix(1, 0, 0, 1, 0, 2.842170943040401e-14)"/><path d="M 399.5 190.800003 H 1030.299988 V 1049.599991 H 399.5 V 190.800003 Z" fill="#00755E" transform="matrix(1, 0, 0, 1, 0, 2.842170943040401e-14)"/><path d="M 1026.4000244140625 1024.5999755859375 L 395.79998779296875 1040.9000244140625 L 373.6000061035156 182.39999389648438 L 1004.2000122070312 166 Z" fill="#EBEBEB" transform="matrix(1, 0, 0, 1, 0, 2.842170943040401e-14)"/><path d="M 1005.7999877929688 1039.800048828125 L 375.20001220703125 1025.800048828125 L 394.20001220703125 167.1999969482422 L 1024.800048828125 181.1999969482422 Z" fill="#CCCCCC" transform="matrix(1, 0, 0, 1, 0, 2.842170943040401e-14)"/><path d="M 384.600006 174.100006 H 1015.399994 V 315.900009 H 384.600006 V 174.100006 Z" fill="#FF7A7A" transform="matrix(1, 0, 0, 1, 0, 4.263256414560601e-14)"/><path d="M 384.600006 315.899994 H 1015.399994 V 1032.899994 H 384.600006 V 315.899994 Z" fill="#FFFFFF" transform="matrix(1, 0, 0, 1, 0, 4.263256414560601e-14)"/><text transform="matrix(1, 0, 0, 1, 440.86911010742193, 286.12109375)" style="white-space: pre;"><tspan x="0" y="0" fill="#FFFFFF" font-family="'Oswald'" font-size="86.521">CREDIT REPO</tspan><tspan x="430" y="0" fill="#FFFFFF" font-family="'Oswald'" font-size="86.521" letter-spacing="-1">R</tspan><tspan x="475.4" y="0" fill="#FFFFFF" font-family="'Oswald'" font-size="86.521">T</tspan></text><path fill="#989A9C" d="M910.8,231.3H489.2c-26.6,0-48.3-21.7-48.3-48.3v-1.9c0-26.6,21.7-48.3,48.3-48.3h421.7&#10;&#9;&#9;&#9;&#9;c26.6,0,48.3,21.7,48.3,48.3v1.9C959.1,209.7,937.5,231.3,910.8,231.3z M489.2,140.3c-22.5,0-40.9,18.3-40.9,40.9v1.9&#10;&#9;&#9;&#9;&#9;c0,22.5,18.3,40.9,40.9,40.9h421.7c22.5,0,40.9-18.3,40.9-40.9v-1.9c0-22.5-18.3-40.9-40.9-40.9H489.2z" transform="matrix(1, 0, 0, 1, 0, 4.263256414560601e-14)"/><path fill="#BCBEC0" d="M912.7,118c0-24.6-20-44.6-44.6-44.6H531.9c-24.6,0-44.6,20-44.6,44.6v18.6h425.4V118z" transform="matrix(1, 0, 0, 1, 0, 4.263256414560601e-14)"/><path fill="#ACAEB0" d="M487.3,136.6v18.6c0,24.6,20,44.6,44.6,44.6h336.2c24.6,0,44.6-20,44.6-44.6v-18.6H487.3z" transform="matrix(1, 0, 0, 1, 0, 4.263256414560601e-14)"/><path d="M 411.5 541.299988 H 988.599976 V 850.899994 H 411.5 V 541.299988 Z" fill="#F0F0F0" transform="matrix(1, 0, 0, 1, 0, 2.842170943040401e-14)"/><path d="M 411.5 349.299988 H 700 V 367.899988 H 411.5 V 349.299988 Z" fill="#D6D6D6" transform="matrix(1, 0, 0, 1, 0, 2.842170943040401e-14)"/><path d="M 411.5 388.899994 H 893.200012 V 407.499994 H 411.5 V 388.899994 Z" fill="#D6D6D6" transform="matrix(1, 0, 0, 1, 0, 2.842170943040401e-14)"/><path d="M 411.5 876.900024 H 893.200012 V 895.500025 H 411.5 V 876.900024 Z" fill="#D6D6D6" transform="matrix(1, 0, 0, 1, 0, 2.842170943040401e-14)"/><path d="M 411.5 914 H 988.599976 V 932.6 H 411.5 V 914 Z" fill="#D6D6D6" transform="matrix(1, 0, 0, 1, 0, 2.842170943040401e-14)"/><path d="M 411.5 437.200012 H 533.400002 V 499.100014 H 411.5 V 437.200012 Z" fill="#7AFFBB" transform="matrix(1, 0, 0, 1, 0, 2.842170943040401e-14)"/><path d="M 563.200012 437.200012 H 685.100014 V 499.100014 H 563.200012 V 437.200012 Z" fill="#FFE3A1" transform="matrix(1, 0, 0, 1, 0, 2.842170943040401e-14)"/><path d="M 714.900024 437.200012 H 836.800026 V 499.100014 H 714.900024 V 437.200012 Z" fill="#C2F7FF" transform="matrix(1, 0, 0, 1, 0, 2.842170943040401e-14)"/><path d="M 866.700012 437.200012 H 988.600014 V 499.100014 H 866.700012 V 437.200012 Z" fill="#FF7A7A" transform="matrix(1, 0, 0, 1, 0, 2.842170943040401e-14)"/><path d="M 434.200012 562 H 591.400009 V 589.9 H 434.200012 V 562 Z" fill="#D6D6D6" transform="matrix(1, 0, 0, 1, 0, 2.842170943040401e-14)"/><path d="M 621.400024 562 H 778.600021 V 589.9 H 621.400024 V 562 Z" fill="#D6D6D6" transform="matrix(1, 0, 0, 1, 0, 2.842170943040401e-14)"/><path d="M 808.599976 562 H 965.799973 V 589.9 H 808.599976 V 562 Z" fill="#D6D6D6" transform="matrix(1, 0, 0, 1, 0, 2.842170943040401e-14)"/><path d="M 519.7000122070312 860 L 287.29998779296875 1102.4000244140625 L 174.10000610351562 993.7999877929688 L 406.5 751.4000244140625 Z" fill="#00A270" transform="matrix(1, 0, 0, 1, 0, 4.263256414560601e-14)"/><path fill="#009466" d="M308.3,889.9c-20.4,21.3-19.7,55.1,1.6,75.5c21.3,20.4,55.1,19.7,75.5-1.6c20.4-21.3,19.7-55.1-1.6-75.5&#10;&#9;&#9;&#9;&#9;&#9;C362.6,867.9,328.8,868.6,308.3,889.9z M374.3,953.2c-14.5,15.1-38.6,15.6-53.7,1.1c-15.2-14.5-15.7-38.6-1.1-53.7&#10;&#9;&#9;&#9;&#9;&#9;c14.5-15.2,38.6-15.7,53.8-1.1C388.3,914,388.8,938,374.3,953.2z" transform="matrix(1, 0, 0, 1, 0, 4.263256414560601e-14)"/><path fill="#009466" d="M285.6,905.3l-75.6,78.8c5.1,4.9,5.2,12.9,0.4,18l67.1,64.3c4.9-5.1,12.9-5.2,18-0.4l75.6-78.8&#10;&#9;&#9;&#9;&#9;c-23,9.2-50.2,4.8-69.2-13.4C282.9,955.6,277.4,928.6,285.6,905.3z" transform="matrix(1, 0, 0, 1, 0, 4.263256414560601e-14)"/><path fill="#009466" d="M483.3,851.8l-67.1-64.3c-4.9,5.1-12.9,5.2-18,0.4l-75.6,78.8c23-9.2,50.1-4.8,69.2,13.4&#10;&#9;&#9;&#9;&#9;c19,18.2,24.5,45.2,16.3,68.5l75.6-78.8C478.6,864.9,478.4,856.8,483.3,851.8z" transform="matrix(1, 0, 0, 1, 0, 4.263256414560601e-14)"/><path fill="#00A270" d="M291.8,984.3c10.8,10.4,11.2,27.5,0.8,38.3c-10.4,10.8-27.5,11.2-38.3,0.8c-10.8-10.4-11.2-27.5-0.8-38.3&#10;&#9;&#9;&#9;&#9;C263.9,974.3,281,974,291.8,984.3z" transform="matrix(1, 0, 0, 1, 0, 4.263256414560601e-14)"/><path fill="#00A270" d="M439.5,830.3c10.8,10.4,11.2,27.5,0.8,38.3c-10.4,10.8-27.5,11.2-38.3,0.8c-10.8-10.4-11.2-27.5-0.8-38.3&#10;&#9;&#9;&#9;&#9;C411.5,820.3,428.7,820,439.5,830.3z" transform="matrix(1, 0, 0, 1, 0, 4.263256414560601e-14)"/><path d="M 203.199997 940.400024 H 538.999985 V 1097.300018 H 203.199997 V 940.400024 Z" transform="matrix(0.6921000480651855, -0.7217999696731567, 0.7217999696731567, 0.6921000480651855, -621.098876953125, 581.4766235351562)" fill="#00A270"/><path fill="#009466" d="M332.5,981.8c-20.4,21.3-19.7,55.1,1.6,75.5c21.3,20.4,55.1,19.7,75.5-1.6c20.4-21.3,19.7-55.1-1.6-75.5&#10;&#9;&#9;&#9;&#9;&#9;C386.8,959.8,352.9,960.5,332.5,981.8z M398.5,1045.1c-14.5,15.1-38.6,15.6-53.7,1.1c-15.2-14.5-15.7-38.6-1.1-53.7&#10;&#9;&#9;&#9;&#9;&#9;c14.5-15.2,38.6-15.7,53.8-1.1C412.5,1005.9,413,1030,398.5,1045.1z" transform="matrix(1, 0, 0, 1, 0, 4.263256414560601e-14)"/><path fill="#009466" d="M309.8,997.2l-75.6,78.8c5.1,4.9,5.2,12.9,0.4,18l67.1,64.3c4.9-5.1,12.9-5.2,18-0.4l75.6-78.8&#10;&#9;&#9;&#9;&#9;c-23,9.2-50.2,4.8-69.2-13.4C307.1,1047.5,301.6,1020.5,309.8,997.2z" transform="matrix(1, 0, 0, 1, 0, 4.263256414560601e-14)"/><path fill="#009466" d="M507.5,943.7l-67.1-64.3c-4.9,5.1-12.9,5.2-18,0.4l-75.6,78.8c23-9.2,50.1-4.8,69.2,13.4&#10;&#9;&#9;&#9;&#9;c19,18.2,24.5,45.2,16.3,68.5l75.6-78.8C502.8,956.8,502.6,948.7,507.5,943.7z" transform="matrix(1, 0, 0, 1, 0, 4.263256414560601e-14)"/><path fill="#00A270" d="M316,1076.2c10.8,10.4,11.2,27.5,0.8,38.3c-10.4,10.8-27.5,11.2-38.3,0.8c-10.8-10.4-11.2-27.5-0.8-38.3&#10;&#9;&#9;&#9;&#9;C288,1066.2,305.2,1065.9,316,1076.2z" transform="matrix(1, 0, 0, 1, 0, 4.263256414560601e-14)"/><path fill="#00A270" d="M463.7,922.3c10.8,10.4,11.2,27.5,0.8,38.3c-10.4,10.8-27.5,11.2-38.3,0.8c-10.8-10.4-11.2-27.5-0.8-38.3&#10;&#9;&#9;&#9;&#9;C435.7,912.3,452.9,911.9,463.7,922.3z" transform="matrix(1, 0, 0, 1, 0, 4.263256414560601e-14)"/><g transform="matrix(1, 0, 0, 1, 0, 4.263256414560601e-14)">
				<path fill="#FFFFFF" d="M549.2,1211.9c0,21-17.2,38.2-38.2,38.2H202.5c-21,0-38.2-17.2-38.2-38.2v-201.3&#10;&#9;&#9;&#9;&#9;&#9;c0-21,17.2-38.2,38.2-38.2h308.4c21,0,38.2,17.2,38.2,38.2V1211.9z"/>
				<path fill="#937252" d="M549.2,1211.9c0,21-17.2,38.2-38.2,38.2H202.5c-21,0-38.2-17.2-38.2-38.2v-201.3&#10;&#9;&#9;&#9;&#9;&#9;c0-21,17.2-38.2,38.2-38.2h308.4c21,0,38.2,17.2,38.2,38.2V1211.9z"/>
			</g><path fill="#85674A" d="M505.2,1175.4c-35.3,0-64.1-28.8-64.1-64.1s28.8-64.1,64.1-64.1h44.2v128.2H505.2z" transform="matrix(1, 0, 0, 1, 0, 4.263256414560601e-14)"/><path fill="#A37F5B" d="M570.5,1054.6h-65.3c-31.3,0-56.7,25.4-56.7,56.7s25.4,56.7,56.7,56.7h65.3V1054.6z" transform="matrix(1, 0, 0, 1, 0, 4.263256414560601e-14)"/><path fill="#8F6F50" d="M530.2,1115.2c0,15.8-12.8,28.7-28.7,28.7c-15.8,0-28.6-12.8-28.6-28.7c0-15.8,12.8-28.6,28.6-28.6&#10;&#9;&#9;&#9;&#9;C517.4,1086.6,530.2,1099.4,530.2,1115.2z" transform="matrix(1, 0, 0, 1, 0, 4.263256414560601e-14)"/><path fill="#FFEDB5" d="M530.9,1111.3c0,14.9-12.1,26.9-27,26.9c-14.9,0-26.9-12.1-26.9-26.9s12.1-26.9,26.9-26.9&#10;&#9;&#9;&#9;&#9;C518.8,1084.3,530.9,1096.4,530.9,1111.3z" transform="matrix(1, 0, 0, 1, 0, 4.263256414560601e-14)"/><path d="M 164.300003 1024.599976 H 549.400009 V 1036.699976 H 164.300003 V 1024.599976 Z" fill="#85674A" transform="matrix(1, 0, 0, 1, 0, 4.263256414560601e-14)"/><path d="M 164.300003 1186.400024 H 549.400009 V 1198.500025 H 164.300003 V 1186.400024 Z" fill="#8F6F50" transform="matrix(1, 0, 0, 1, 0, 4.263256414560601e-14)"/><g transform="matrix(1, 0, 0, 1, 0, 4.263256414560601e-14)">
					<path d="M 164.300003 1028.300049 H 181.000004 V 1032.000049 H 164.300003 V 1028.300049 Z" fill="#FFEDB5"/>
				</g><path fill="#FFEDB5" d="M517.7,1032h-33.3v-3.7h33.3V1032z M469.6,1032h-33.3v-3.7h33.3V1032z M421.5,1032h-33.3v-3.7h33.3&#10;&#9;&#9;&#9;&#9;&#9;&#9;V1032z M373.4,1032h-33.3v-3.7h33.3V1032z M325.3,1032H292v-3.7h33.3V1032z M277.2,1032h-33.3v-3.7h33.3V1032z M229.1,1032&#10;&#9;&#9;&#9;&#9;&#9;&#9;h-33.3v-3.7h33.3V1032z" transform="matrix(1, 0, 0, 1, 0, 4.263256414560601e-14)"/><path d="M 532.5 1028.300049 H 549.200001 V 1032.000049 H 532.5 V 1028.300049 Z" fill="#FFEDB5" transform="matrix(1, 0, 0, 1, 0, 4.263256414560601e-14)"/><g transform="matrix(1, 0, 0, 1, 0, 4.263256414560601e-14)">
					<path d="M 164.300003 1190.599976 H 181.000004 V 1194.299976 H 164.300003 V 1190.599976 Z" fill="#FFEDB5"/>
				</g><path fill="#FFEDB5" d="M517.7,1194.3h-33.3v-3.7h33.3V1194.3z M469.6,1194.3h-33.3v-3.7h33.3V1194.3z M421.5,1194.3h-33.3&#10;&#9;&#9;&#9;&#9;&#9;&#9;v-3.7h33.3V1194.3z M373.4,1194.3h-33.3v-3.7h33.3V1194.3z M325.3,1194.3H292v-3.7h33.3V1194.3z M277.2,1194.3h-33.3v-3.7h33.3&#10;&#9;&#9;&#9;&#9;&#9;&#9;V1194.3z M229.1,1194.3h-33.3v-3.7h33.3V1194.3z" transform="matrix(1, 0, 0, 1, 0, 4.263256414560601e-14)"/><path d="M 532.5 1190.599976 H 549.200001 V 1194.299976 H 532.5 V 1190.599976 Z" fill="#FFEDB5" transform="matrix(1, 0, 0, 1, 0, 4.263256414560601e-14)"/><path d="M 447.800018 454.700012 A 142.100006 142.100006 0 0 1 305.700012 596.800018 A 142.100006 142.100006 0 0 1 163.600006 454.700012 A 142.100006 142.100006 0 0 1 305.700012 312.600006 A 142.100006 142.100006 0 0 1 447.800018 454.700012 Z" fill="#FF7A7A" transform="matrix(1, 0, 0, 1, 0, 4.263256414560601e-14)"/><path fill="#FFFFFF" d="M271.3,420.3c-10.7,10.7-28.2,10.7-38.9,0c-10.8-10.8-10.8-28.2,0-38.9c10.7-10.7,28.1-10.7,38.9,0&#10;&#9;&#9;&#9;&#9;&#9;C282,392.1,282,409.6,271.3,420.3z" transform="matrix(1, 0, 0, 1, 0, 4.263256414560601e-14)"/><path fill="#FFFFFF" d="M379,528c-10.7,10.7-28.1,10.7-38.9,0c-10.7-10.7-10.7-28.2,0-38.9c10.8-10.8,28.2-10.7,38.9,0&#10;&#9;&#9;&#9;&#9;&#9;C389.8,499.9,389.8,517.3,379,528z" transform="matrix(1, 0, 0, 1, 0, 4.263256414560601e-14)"/><path d="M 237 541.7000122070312 L 218.8000030517578 523.4000244140625 L 374.3999938964844 367.79998779296875 L 392.6000061035156 386.1000061035156 Z" fill="#FFFFFF" transform="matrix(1, 0, 0, 1, 0, 4.263256414560601e-14)"/><path fill="#FF7A7A" d="M371.9,508.6c0,6.8-5.5,12.4-12.4,12.4c-6.8,0-12.4-5.5-12.4-12.4c0-6.8,5.5-12.4,12.4-12.4&#10;&#9;&#9;&#9;C366.4,496.2,371.9,501.8,371.9,508.6z" transform="matrix(1, 0, 0, 1, 0, 2.842170943040401e-14)"/><path fill="#FF7A7A" d="M264.2,400.9c0,6.8-5.5,12.4-12.4,12.4c-6.8,0-12.4-5.5-12.4-12.4c0-6.8,5.5-12.4,12.4-12.4&#10;&#9;&#9;&#9;C258.7,388.5,264.2,394.1,264.2,400.9z" transform="matrix(1, 0, 0, 1, 0, 2.842170943040401e-14)"/>
</svg>